<?xml version="1.0" encoding="UTF-8"?>
<svg width="35px" height="24px" viewBox="0 0 35 24" version="1.1" xmlns="http://www.w3.org/2000/svg" xmlns:xlink="http://www.w3.org/1999/xlink">
    <!-- Generator: Sketch 52.5 (67469) - http://www.bohemiancoding.com/sketch -->
    <title>menu_mobile</title>
    <desc>Created with Sketch.</desc>
    <g id="Symbols" stroke="none" stroke-width="1" fill="none" fill-rule="evenodd">
        <g id="Header-Mobile" transform="translate(-8.000000, -40.000000)" fill="#646464">
            <g id="menu_mobile" transform="translate(8.000000, 40.000000)">
                <g id="Lineas-menu" transform="translate(8.000000, 0.000000)">
                    <path d="M0.86908884,1.52727273 L20.1309112,1.52727273 C20.6089073,1.52727273 21,1.18517171 21,0.763636364 C21,0.342101018 20.6089073,-2.88657986e-15 20.1309112,-2.88657986e-15 L0.86908884,-2.88657986e-15 C0.389342612,-2.88657986e-15 -5.15143483e-14,0.342101018 -5.15143483e-14,0.763636364 C-5.46906325e-05,1.18517171 0.389342612,1.52727273 0.86908884,1.52727273 Z" id="Path"></path>
                    <path d="M0.86908884,12.0272727 L20.1309112,12.0272727 C20.6089073,12.0272727 21,11.683634 21,11.2636364 C21,10.8436388 20.6089073,10.5 20.1309112,10.5 L0.86908884,10.5 C0.389342612,10.5 7.28306304e-14,10.8436388 7.28306304e-14,11.2636364 C-5.46906323e-05,11.683634 0.389342612,12.0272727 0.86908884,12.0272727 Z" id="Path"></path>
                    <path d="M0.615639977,7.25454545 L14.260215,7.25454545 C14.598815,7.25454545 14.875855,6.91244444 14.875855,6.49090909 C14.875855,6.06937375 14.598815,5.72727273 14.260215,5.72727273 L0.615639977,5.72727273 C0.275800201,5.72727273 2.48689958e-14,6.06937375 2.48689958e-14,6.49090909 C-3.87414245e-05,6.91244444 0.275800201,7.25454545 0.615639977,7.25454545 Z" id="Path"></path>
                </g>
                <path d="M0.414,17.859 C0.414,16.059 1.863,14.61 3.663,14.61 C4.572,14.61 5.229,14.916 5.841,15.447 C5.922,15.519 5.922,15.627 5.85,15.699 L5.454,16.104 C5.391,16.185 5.31,16.185 5.229,16.104 C4.806,15.735 4.23,15.501 3.672,15.501 C2.385,15.501 1.413,16.581 1.413,17.841 C1.413,19.101 2.394,20.172 3.681,20.172 C4.338,20.172 4.797,19.911 5.229,19.578 C5.31,19.515 5.391,19.524 5.445,19.569 L5.859,19.974 C5.931,20.037 5.913,20.154 5.85,20.217 C5.238,20.811 4.464,21.09 3.663,21.09 C1.863,21.09 0.414,19.659 0.414,17.859 Z M6.588,19.884 C6.588,19.227 7.11,18.723 8.028,18.723 C8.406,18.723 8.739,18.831 8.739,18.831 C8.748,18.264 8.64,18.039 8.181,18.039 C7.767,18.039 7.362,18.147 7.173,18.201 C7.065,18.228 7.002,18.156 6.975,18.057 L6.903,17.724 C6.876,17.607 6.939,17.544 7.02,17.517 C7.083,17.49 7.596,17.31 8.262,17.31 C9.414,17.31 9.522,18.012 9.522,18.912 L9.522,20.829 C9.522,20.919 9.441,21 9.351,21 L9.099,21 C9.018,21 8.982,20.964 8.946,20.874 L8.856,20.631 C8.658,20.82 8.307,21.09 7.749,21.09 C7.074,21.09 6.588,20.631 6.588,19.884 Z M7.371,19.875 C7.371,20.199 7.587,20.451 7.92,20.451 C8.28,20.451 8.622,20.181 8.73,20.001 L8.73,19.425 C8.676,19.389 8.424,19.281 8.1,19.281 C7.668,19.281 7.371,19.506 7.371,19.875 Z M10.89,20.019 L10.89,18.147 L10.512,18.147 C10.413,18.147 10.341,18.066 10.341,17.976 L10.341,17.571 C10.341,17.472 10.413,17.4 10.512,17.4 L10.89,17.4 L10.89,16.401 C10.89,16.311 10.971,16.23 11.061,16.23 L11.574,16.221 C11.664,16.221 11.736,16.302 11.736,16.392 L11.736,17.4 L12.654,17.4 C12.753,17.4 12.825,17.472 12.825,17.571 L12.825,17.976 C12.825,18.066 12.753,18.147 12.654,18.147 L11.736,18.147 L11.736,19.929 C11.736,20.235 11.853,20.289 12.024,20.289 C12.213,20.289 12.465,20.181 12.573,20.127 C12.69,20.073 12.744,20.127 12.78,20.208 L12.942,20.604 C12.987,20.703 12.951,20.775 12.861,20.82 C12.771,20.874 12.24,21.09 11.808,21.09 C11.097,21.09 10.89,20.658 10.89,20.019 Z M13.509,19.2 C13.509,18.183 14.229,17.31 15.309,17.31 C16.245,17.31 16.965,18.012 16.965,18.975 C16.965,19.038 16.956,19.155 16.947,19.218 C16.938,19.308 16.866,19.371 16.785,19.371 L14.337,19.371 C14.364,19.857 14.787,20.334 15.372,20.334 C15.696,20.334 15.993,20.19 16.173,20.073 C16.281,20.01 16.344,19.974 16.416,20.064 L16.668,20.406 C16.731,20.478 16.758,20.55 16.65,20.64 C16.389,20.865 15.921,21.09 15.318,21.09 C14.229,21.09 13.509,20.235 13.509,19.2 Z M14.382,18.804 L16.128,18.804 C16.101,18.372 15.741,18.003 15.3,18.003 C14.814,18.003 14.436,18.354 14.382,18.804 Z M17.469,20.784 C17.469,20.091 18.108,19.758 18.108,19.758 C18.108,19.758 17.829,19.425 17.829,18.885 C17.829,18.048 18.459,17.31 19.377,17.31 L20.952,17.31 C21.051,17.31 21.123,17.382 21.123,17.481 L21.123,17.706 C21.123,17.769 21.087,17.85 21.024,17.859 L20.529,17.994 C20.529,17.994 20.916,18.282 20.916,18.957 C20.916,19.722 20.322,20.424 19.386,20.424 C18.927,20.424 18.675,20.28 18.603,20.28 C18.54,20.28 18.234,20.433 18.234,20.721 C18.234,20.928 18.396,21.09 18.666,21.09 L19.89,21.09 C20.673,21.09 21.303,21.513 21.303,22.296 C21.303,23.088 20.583,23.79 19.386,23.79 C18.117,23.79 17.604,23.142 17.604,22.557 C17.604,22.017 18.045,21.765 18.135,21.711 L18.135,21.684 C17.946,21.63 17.469,21.387 17.469,20.784 Z M19.395,19.731 C19.845,19.731 20.151,19.389 20.151,18.903 C20.151,18.417 19.845,18.075 19.395,18.075 C18.936,18.075 18.603,18.417 18.603,18.903 C18.603,19.389 18.936,19.731 19.395,19.731 Z M18.441,22.413 C18.441,22.782 18.828,23.052 19.377,23.052 C19.926,23.052 20.403,22.773 20.403,22.341 C20.403,22.197 20.313,21.828 19.728,21.828 C19.467,21.828 19.197,21.828 18.936,21.846 C18.882,21.864 18.441,22.008 18.441,22.413 Z M21.699,19.191 C21.699,18.174 22.509,17.31 23.517,17.31 C24.525,17.31 25.335,18.174 25.335,19.191 C25.335,20.226 24.525,21.09 23.517,21.09 C22.509,21.09 21.699,20.226 21.699,19.191 Z M22.5,19.191 C22.5,19.812 22.95,20.316 23.517,20.316 C24.084,20.316 24.534,19.812 24.534,19.191 C24.534,18.588 24.084,18.093 23.517,18.093 C22.95,18.093 22.5,18.588 22.5,19.191 Z M26.235,20.829 L26.235,17.571 C26.235,17.481 26.316,17.4 26.406,17.4 L26.667,17.4 C26.73,17.4 26.802,17.454 26.82,17.526 L26.919,17.832 C26.982,17.742 27.315,17.31 27.972,17.31 C28.314,17.31 28.728,17.4 28.629,17.643 L28.413,18.084 C28.368,18.183 28.278,18.201 28.197,18.165 C28.143,18.138 28.008,18.102 27.891,18.102 C27.369,18.102 27.117,18.48 27.081,18.543 L27.081,20.829 C27.081,20.982 26.982,21 26.838,21 L26.406,21 C26.316,21 26.235,20.919 26.235,20.829 Z M29.673,15.933 C29.385,15.933 29.16,15.699 29.16,15.411 C29.16,15.114 29.385,14.88 29.673,14.88 C29.97,14.88 30.204,15.114 30.204,15.411 C30.204,15.699 29.97,15.933 29.673,15.933 Z M29.259,20.829 L29.259,17.571 C29.259,17.481 29.34,17.4 29.43,17.4 L29.943,17.4 C30.033,17.4 30.114,17.481 30.114,17.571 L30.114,20.829 C30.114,20.919 30.033,21 29.943,21 L29.43,21 C29.34,21 29.259,20.919 29.259,20.829 Z M31.023,19.2 C31.023,18.183 31.743,17.31 32.823,17.31 C33.759,17.31 34.479,18.012 34.479,18.975 C34.479,19.038 34.47,19.155 34.461,19.218 C34.452,19.308 34.38,19.371 34.299,19.371 L31.851,19.371 C31.878,19.857 32.301,20.334 32.886,20.334 C33.21,20.334 33.507,20.19 33.687,20.073 C33.795,20.01 33.858,19.974 33.93,20.064 L34.182,20.406 C34.245,20.478 34.272,20.55 34.164,20.64 C33.903,20.865 33.435,21.09 32.832,21.09 C31.743,21.09 31.023,20.235 31.023,19.2 Z M31.896,18.804 L33.642,18.804 C33.615,18.372 33.255,18.003 32.814,18.003 C32.328,18.003 31.95,18.354 31.896,18.804 Z" id="Categorie"></path>
            </g>
        </g>
    </g>
</svg>