<?xml version="1.0" encoding="UTF-8"?>
<svg width="38px" height="24px" viewBox="0 0 38 24" version="1.1" xmlns="http://www.w3.org/2000/svg" xmlns:xlink="http://www.w3.org/1999/xlink">
    <!-- Generator: Sketch 52.5 (67469) - http://www.bohemiancoding.com/sketch -->
    <title>menu_mobile_PT</title>
    <desc>Created with Sketch.</desc>
    <g id="Elementos" stroke="none" stroke-width="1" fill="none" fill-rule="evenodd">
        <g id="Header-Mobile" transform="translate(-4.000000, -44.000000)" fill="#646464">
            <g id="menu_mobile_PT" transform="translate(4.000000, 44.000000)">
                <g id="Lineas-menu" transform="translate(8.000000, 0.000000)">
                    <path d="M0.86908884,1.52727273 L20.1309112,1.52727273 C20.6089073,1.52727273 21,1.18517171 21,0.763636364 C21,0.342101018 20.6089073,-2.88657986e-15 20.1309112,-2.88657986e-15 L0.86908884,-2.88657986e-15 C0.389342612,-2.88657986e-15 -5.15143483e-14,0.342101018 -5.15143483e-14,0.763636364 C-5.46906325e-05,1.18517171 0.389342612,1.52727273 0.86908884,1.52727273 Z" id="Path"></path>
                    <path d="M0.86908884,12.0272727 L20.1309112,12.0272727 C20.6089073,12.0272727 21,11.683634 21,11.2636364 C21,10.8436388 20.6089073,10.5 20.1309112,10.5 L0.86908884,10.5 C0.389342612,10.5 7.28306304e-14,10.8436388 7.28306304e-14,11.2636364 C-5.46906323e-05,11.683634 0.389342612,12.0272727 0.86908884,12.0272727 Z" id="Path"></path>
                    <path d="M0.615639977,7.25454545 L14.260215,7.25454545 C14.598815,7.25454545 14.875855,6.91244444 14.875855,6.49090909 C14.875855,6.06937375 14.598815,5.72727273 14.260215,5.72727273 L0.615639977,5.72727273 C0.275800201,5.72727273 2.48689958e-14,6.06937375 2.48689958e-14,6.49090909 C-3.87414245e-05,6.91244444 0.275800201,7.25454545 0.615639977,7.25454545 Z" id="Path"></path>
                </g>
                <path d="M0.36,17.859 C0.36,16.059 1.809,14.61 3.609,14.61 C4.518,14.61 5.175,14.898 5.787,15.447 C5.868,15.519 5.868,15.627 5.796,15.699 L5.247,16.266 C5.184,16.338 5.094,16.338 5.022,16.266 C4.644,15.933 4.14,15.735 3.636,15.735 C2.484,15.735 1.629,16.698 1.629,17.832 C1.629,18.957 2.493,19.911 3.645,19.911 C4.185,19.911 4.644,19.704 5.022,19.398 C5.094,19.335 5.193,19.344 5.247,19.398 L5.805,19.974 C5.877,20.037 5.859,20.154 5.796,20.217 C5.184,20.811 4.41,21.09 3.609,21.09 C1.809,21.09 0.36,19.659 0.36,17.859 Z M6.435,19.857 C6.435,19.218 6.957,18.723 7.875,18.723 C8.235,18.723 8.532,18.822 8.532,18.822 C8.541,18.363 8.397,18.201 8.064,18.201 C7.731,18.201 7.263,18.273 7.056,18.336 C6.93,18.372 6.867,18.291 6.849,18.174 L6.768,17.706 C6.741,17.571 6.813,17.508 6.894,17.481 C6.966,17.454 7.542,17.31 8.118,17.31 C9.243,17.31 9.504,17.895 9.504,18.876 L9.504,20.829 C9.504,20.919 9.423,21 9.333,21 L9.009,21 C8.946,21 8.901,20.973 8.856,20.874 L8.748,20.631 C8.541,20.82 8.208,21.09 7.65,21.09 C6.93,21.09 6.435,20.622 6.435,19.857 Z M7.425,19.857 C7.425,20.127 7.614,20.325 7.893,20.325 C8.181,20.325 8.46,20.082 8.514,19.974 L8.514,19.479 C8.514,19.479 8.271,19.371 8.01,19.371 C7.659,19.371 7.425,19.569 7.425,19.857 Z M10.728,19.929 L10.728,18.345 L10.422,18.345 C10.332,18.345 10.26,18.264 10.26,18.174 L10.26,17.571 C10.26,17.472 10.332,17.4 10.422,17.4 L10.728,17.4 L10.728,16.401 C10.728,16.311 10.809,16.23 10.899,16.23 L11.637,16.221 C11.727,16.221 11.799,16.302 11.799,16.392 L11.799,17.4 L12.591,17.4 C12.69,17.4 12.762,17.472 12.762,17.571 L12.762,18.174 C12.762,18.264 12.69,18.345 12.591,18.345 L11.799,18.345 L11.799,19.785 C11.799,20.037 11.934,20.073 12.078,20.073 C12.231,20.073 12.42,20.01 12.519,19.974 C12.618,19.938 12.69,19.983 12.717,20.073 L12.897,20.64 C12.933,20.73 12.888,20.82 12.798,20.856 C12.753,20.883 12.168,21.09 11.727,21.09 C11.034,21.09 10.728,20.658 10.728,19.929 Z M13.374,19.2 C13.374,18.183 14.139,17.31 15.21,17.31 C16.137,17.31 16.893,18.012 16.893,18.984 C16.893,19.047 16.884,19.164 16.875,19.227 C16.866,19.317 16.785,19.38 16.704,19.38 L14.4,19.38 C14.427,19.749 14.742,20.163 15.264,20.163 C15.543,20.163 15.804,20.055 15.966,19.938 C16.056,19.884 16.137,19.866 16.2,19.938 L16.569,20.361 C16.632,20.424 16.65,20.523 16.56,20.595 C16.263,20.874 15.804,21.09 15.219,21.09 C14.139,21.09 13.374,20.235 13.374,19.2 Z M14.481,18.75 L15.84,18.75 C15.813,18.417 15.525,18.138 15.183,18.138 C14.823,18.138 14.526,18.408 14.481,18.75 Z M17.271,20.73 C17.271,20.028 17.946,19.722 17.946,19.722 C17.946,19.722 17.676,19.416 17.676,18.876 C17.676,18.039 18.351,17.31 19.242,17.31 L20.88,17.31 C20.979,17.31 21.051,17.382 21.051,17.481 L21.051,17.778 C21.051,17.841 21.015,17.913 20.952,17.931 L20.448,18.093 C20.448,18.093 20.808,18.372 20.808,19.011 C20.808,19.722 20.214,20.424 19.269,20.424 C18.927,20.424 18.693,20.352 18.549,20.352 C18.423,20.352 18.216,20.478 18.216,20.694 C18.216,20.883 18.378,21 18.576,21 L19.728,21 C20.547,21 21.213,21.468 21.213,22.26 C21.213,23.088 20.547,23.79 19.242,23.79 C17.91,23.79 17.406,23.133 17.406,22.557 C17.406,22.017 17.856,21.756 17.946,21.702 L17.946,21.675 C17.793,21.63 17.271,21.387 17.271,20.73 Z M18.639,18.921 C18.639,19.299 18.909,19.569 19.269,19.569 C19.638,19.569 19.89,19.299 19.89,18.921 C19.89,18.543 19.638,18.273 19.269,18.273 C18.909,18.273 18.639,18.543 18.639,18.921 Z M18.441,22.359 C18.441,22.674 18.747,22.89 19.233,22.89 C19.737,22.89 20.07,22.665 20.07,22.323 C20.07,22.161 19.944,21.882 19.413,21.882 C19.215,21.882 19.017,21.891 18.828,21.918 C18.72,21.954 18.441,22.08 18.441,22.359 Z M21.528,19.191 C21.528,18.174 22.356,17.31 23.373,17.31 C24.39,17.31 25.218,18.174 25.218,19.191 C25.218,20.226 24.39,21.09 23.373,21.09 C22.356,21.09 21.528,20.226 21.528,19.191 Z M22.509,19.191 C22.509,19.704 22.887,20.118 23.373,20.118 C23.85,20.118 24.237,19.704 24.237,19.191 C24.237,18.687 23.85,18.282 23.373,18.282 C22.887,18.282 22.509,18.687 22.509,19.191 Z M26.019,20.829 L26.019,17.571 C26.019,17.472 26.1,17.4 26.19,17.4 L26.532,17.4 C26.613,17.4 26.667,17.445 26.694,17.517 L26.82,17.868 C26.946,17.688 27.279,17.31 27.837,17.31 C28.26,17.31 28.638,17.445 28.53,17.67 L28.197,18.255 C28.152,18.336 28.062,18.372 27.99,18.336 C27.963,18.327 27.828,18.282 27.729,18.282 C27.369,18.282 27.153,18.525 27.09,18.651 L27.09,20.829 C27.09,20.955 27.009,21 26.883,21 L26.19,21 C26.1,21 26.019,20.919 26.019,20.829 Z M29.088,20.829 L29.088,17.571 C29.088,17.472 29.169,17.4 29.259,17.4 L30.006,17.4 C30.096,17.4 30.177,17.472 30.177,17.571 L30.177,20.829 C30.177,20.919 30.096,21 30.006,21 L29.259,21 C29.169,21 29.088,20.919 29.088,20.829 Z M29.619,16.0900952 C29.277,16.0900952 29.007,15.8110952 29.007,15.4690952 C29.007,15.1270952 29.277,14.8480952 29.619,14.8480952 C29.97,14.8480952 30.249,15.1270952 30.249,15.4690952 C30.249,15.8110952 29.97,16.0900952 29.619,16.0900952 Z M30.996,19.857 C30.996,19.218 31.518,18.723 32.436,18.723 C32.796,18.723 33.093,18.822 33.093,18.822 C33.102,18.363 32.958,18.201 32.625,18.201 C32.292,18.201 31.824,18.273 31.617,18.336 C31.491,18.372 31.428,18.291 31.41,18.174 L31.329,17.706 C31.302,17.571 31.374,17.508 31.455,17.481 C31.527,17.454 32.103,17.31 32.679,17.31 C33.804,17.31 34.065,17.895 34.065,18.876 L34.065,20.829 C34.065,20.919 33.984,21 33.894,21 L33.57,21 C33.507,21 33.462,20.973 33.417,20.874 L33.309,20.631 C33.102,20.82 32.769,21.09 32.211,21.09 C31.491,21.09 30.996,20.622 30.996,19.857 Z M31.986,19.857 C31.986,20.127 32.175,20.325 32.454,20.325 C32.742,20.325 33.021,20.082 33.075,19.974 L33.075,19.479 C33.075,19.479 32.832,19.371 32.571,19.371 C32.22,19.371 31.986,19.569 31.986,19.857 Z M34.956,20.757 C34.902,20.712 34.866,20.64 34.902,20.568 L35.145,20.082 C35.181,19.992 35.271,19.974 35.352,20.019 C35.352,20.019 35.757,20.235 36.171,20.235 C36.351,20.235 36.477,20.163 36.477,20.01 C36.477,19.848 36.351,19.749 35.874,19.56 C35.181,19.29 34.857,18.921 34.857,18.372 C34.857,17.823 35.262,17.31 36.18,17.31 C36.711,17.31 37.098,17.463 37.287,17.589 C37.368,17.643 37.413,17.742 37.368,17.832 L37.143,18.291 C37.098,18.372 36.999,18.381 36.927,18.354 C36.927,18.354 36.522,18.165 36.18,18.165 C35.964,18.165 35.874,18.255 35.874,18.372 C35.874,18.534 36.036,18.588 36.369,18.723 C37.062,18.993 37.584,19.29 37.584,19.992 C37.584,20.586 37.062,21.09 36.153,21.09 C35.559,21.09 35.145,20.901 34.956,20.757 Z" id="Categorías"></path>
            </g>
        </g>
    </g>
</svg>