<?xml version="1.0" encoding="UTF-8"?>
<svg width="38px" height="24px" viewBox="0 0 38 24" version="1.1" xmlns="http://www.w3.org/2000/svg" xmlns:xlink="http://www.w3.org/1999/xlink">
    <!-- Generator: Sketch 52.5 (67469) - http://www.bohemiancoding.com/sketch -->
    <title>menu_mobile_FR</title>
    <desc>Created with Sketch.</desc>
    <g id="Elementos" stroke="none" stroke-width="1" fill="none" fill-rule="evenodd">
        <g id="Header-Mobile" transform="translate(-4.000000, -44.000000)" fill="#646464">
            <g id="menu_mobile_FR" transform="translate(4.000000, 44.000000)">
                <g id="Lineas-menu" transform="translate(8.000000, -0.000000)">
                    <path d="M0.86908884,1.52727273 L20.1309112,1.52727273 C20.6089073,1.52727273 21,1.18517171 21,0.763636364 C21,0.342101018 20.6089073,-2.88657986e-15 20.1309112,-2.88657986e-15 L0.86908884,-2.88657986e-15 C0.389342612,-2.88657986e-15 -5.15143483e-14,0.342101018 -5.15143483e-14,0.763636364 C-5.46906325e-05,1.18517171 0.389342612,1.52727273 0.86908884,1.52727273 Z" id="Path"></path>
                    <path d="M0.86908884,12.0272727 L20.1309112,12.0272727 C20.6089073,12.0272727 21,11.683634 21,11.2636364 C21,10.8436388 20.6089073,10.5 20.1309112,10.5 L0.86908884,10.5 C0.389342612,10.5 7.28306304e-14,10.8436388 7.28306304e-14,11.2636364 C-5.46906323e-05,11.683634 0.389342612,12.0272727 0.86908884,12.0272727 Z" id="Path"></path>
                    <path d="M0.615639977,7.25454545 L14.260215,7.25454545 C14.598815,7.25454545 14.875855,6.91244444 14.875855,6.49090909 C14.875855,6.06937375 14.598815,5.72727273 14.260215,5.72727273 L0.615639977,5.72727273 C0.275800201,5.72727273 2.48689958e-14,6.06937375 2.48689958e-14,6.49090909 C-3.87414245e-05,6.91244444 0.275800201,7.25454545 0.615639977,7.25454545 Z" id="Path"></path>
                </g>
                <path d="M0.36,17.8270952 C0.36,16.0270952 1.809,14.5780952 3.609,14.5780952 C4.518,14.5780952 5.175,14.8660952 5.787,15.4150952 C5.868,15.4870952 5.868,15.5950952 5.796,15.6670952 L5.247,16.2340952 C5.184,16.3060952 5.094,16.3060952 5.022,16.2340952 C4.644,15.9010952 4.14,15.7030952 3.636,15.7030952 C2.484,15.7030952 1.629,16.6660952 1.629,17.8000952 C1.629,18.9250952 2.493,19.8790952 3.645,19.8790952 C4.185,19.8790952 4.644,19.6720952 5.022,19.3660952 C5.094,19.3030952 5.193,19.3120952 5.247,19.3660952 L5.805,19.9420952 C5.877,20.0050952 5.859,20.1220952 5.796,20.1850952 C5.184,20.7790952 4.41,21.0580952 3.609,21.0580952 C1.809,21.0580952 0.36,19.6270952 0.36,17.8270952 Z M6.435,19.8250952 C6.435,19.1860952 6.957,18.6910952 7.875,18.6910952 C8.235,18.6910952 8.532,18.7900952 8.532,18.7900952 C8.541,18.3310952 8.397,18.1690952 8.064,18.1690952 C7.731,18.1690952 7.263,18.2410952 7.056,18.3040952 C6.93,18.3400952 6.867,18.2590952 6.849,18.1420952 L6.768,17.6740952 C6.741,17.5390952 6.813,17.4760952 6.894,17.4490952 C6.966,17.4220952 7.542,17.2780952 8.118,17.2780952 C9.243,17.2780952 9.504,17.8630952 9.504,18.8440952 L9.504,20.7970952 C9.504,20.8870952 9.423,20.9680952 9.333,20.9680952 L9.009,20.9680952 C8.946,20.9680952 8.901,20.9410952 8.856,20.8420952 L8.748,20.5990952 C8.541,20.7880952 8.208,21.0580952 7.65,21.0580952 C6.93,21.0580952 6.435,20.5900952 6.435,19.8250952 Z M7.425,19.8250952 C7.425,20.0950952 7.614,20.2930952 7.893,20.2930952 C8.181,20.2930952 8.46,20.0500952 8.514,19.9420952 L8.514,19.4470952 C8.514,19.4470952 8.271,19.3390952 8.01,19.3390952 C7.659,19.3390952 7.425,19.5370952 7.425,19.8250952 Z M10.728,19.8970952 L10.728,18.3130952 L10.422,18.3130952 C10.332,18.3130952 10.26,18.2320952 10.26,18.1420952 L10.26,17.5390952 C10.26,17.4400952 10.332,17.3680952 10.422,17.3680952 L10.728,17.3680952 L10.728,16.3690952 C10.728,16.2790952 10.809,16.1980952 10.899,16.1980952 L11.637,16.1890952 C11.727,16.1890952 11.799,16.2700952 11.799,16.3600952 L11.799,17.3680952 L12.591,17.3680952 C12.69,17.3680952 12.762,17.4400952 12.762,17.5390952 L12.762,18.1420952 C12.762,18.2320952 12.69,18.3130952 12.591,18.3130952 L11.799,18.3130952 L11.799,19.7530952 C11.799,20.0050952 11.934,20.0410952 12.078,20.0410952 C12.231,20.0410952 12.42,19.9780952 12.519,19.9420952 C12.618,19.9060952 12.69,19.9510952 12.717,20.0410952 L12.897,20.6080952 C12.933,20.6980952 12.888,20.7880952 12.798,20.8240952 C12.753,20.8510952 12.168,21.0580952 11.727,21.0580952 C11.034,21.0580952 10.728,20.6260952 10.728,19.8970952 Z M13.374,19.1680952 C13.374,18.1510952 14.139,17.2780952 15.21,17.2780952 C16.137,17.2780952 16.893,17.9800952 16.893,18.9520952 C16.893,19.0150952 16.884,19.1320952 16.875,19.1950952 C16.866,19.2850952 16.785,19.3480952 16.704,19.3480952 L14.4,19.3480952 C14.427,19.7170952 14.742,20.1310952 15.264,20.1310952 C15.543,20.1310952 15.804,20.0230952 15.966,19.9060952 C16.056,19.8520952 16.137,19.8340952 16.2,19.9060952 L16.569,20.3290952 C16.632,20.3920952 16.65,20.4910952 16.56,20.5630952 C16.263,20.8420952 15.804,21.0580952 15.219,21.0580952 C14.139,21.0580952 13.374,20.2030952 13.374,19.1680952 Z M14.481,18.7180952 L15.84,18.7180952 C15.813,18.3850952 15.525,18.1060952 15.183,18.1060952 C14.823,18.1060952 14.526,18.3760952 14.481,18.7180952 Z M14.544,16.2160952 C14.409,16.2700952 14.355,16.2430952 14.31,16.1620952 L14.157,15.8380952 C14.121,15.7660952 14.157,15.7030952 14.211,15.6670952 L15.678,14.7940952 C15.759,14.7400952 15.867,14.7400952 15.912,14.8210952 L16.173,15.2800952 C16.227,15.3970952 16.191,15.4870952 16.119,15.5230952 L14.544,16.2160952 Z M17.271,20.6980952 C17.271,19.9960952 17.946,19.6900952 17.946,19.6900952 C17.946,19.6900952 17.676,19.3840952 17.676,18.8440952 C17.676,18.0070952 18.351,17.2780952 19.242,17.2780952 L20.88,17.2780952 C20.979,17.2780952 21.051,17.3500952 21.051,17.4490952 L21.051,17.7460952 C21.051,17.8090952 21.015,17.8810952 20.952,17.8990952 L20.448,18.0610952 C20.448,18.0610952 20.808,18.3400952 20.808,18.9790952 C20.808,19.6900952 20.214,20.3920952 19.269,20.3920952 C18.927,20.3920952 18.693,20.3200952 18.549,20.3200952 C18.423,20.3200952 18.216,20.4460952 18.216,20.6620952 C18.216,20.8510952 18.378,20.9680952 18.576,20.9680952 L19.728,20.9680952 C20.547,20.9680952 21.213,21.4360952 21.213,22.2280952 C21.213,23.0560952 20.547,23.7580952 19.242,23.7580952 C17.91,23.7580952 17.406,23.1010952 17.406,22.5250952 C17.406,21.9850952 17.856,21.7240952 17.946,21.6700952 L17.946,21.6430952 C17.793,21.5980952 17.271,21.3550952 17.271,20.6980952 Z M18.639,18.8890952 C18.639,19.2670952 18.909,19.5370952 19.269,19.5370952 C19.638,19.5370952 19.89,19.2670952 19.89,18.8890952 C19.89,18.5110952 19.638,18.2410952 19.269,18.2410952 C18.909,18.2410952 18.639,18.5110952 18.639,18.8890952 Z M18.441,22.3270952 C18.441,22.6420952 18.747,22.8580952 19.233,22.8580952 C19.737,22.8580952 20.07,22.6330952 20.07,22.2910952 C20.07,22.1290952 19.944,21.8500952 19.413,21.8500952 C19.215,21.8500952 19.017,21.8590952 18.828,21.8860952 C18.72,21.9220952 18.441,22.0480952 18.441,22.3270952 Z M21.528,19.1590952 C21.528,18.1420952 22.356,17.2780952 23.373,17.2780952 C24.39,17.2780952 25.218,18.1420952 25.218,19.1590952 C25.218,20.1940952 24.39,21.0580952 23.373,21.0580952 C22.356,21.0580952 21.528,20.1940952 21.528,19.1590952 Z M22.509,19.1590952 C22.509,19.6720952 22.887,20.0860952 23.373,20.0860952 C23.85,20.0860952 24.237,19.6720952 24.237,19.1590952 C24.237,18.6550952 23.85,18.2500952 23.373,18.2500952 C22.887,18.2500952 22.509,18.6550952 22.509,19.1590952 Z M26.019,20.7970952 L26.019,17.5390952 C26.019,17.4400952 26.1,17.3680952 26.19,17.3680952 L26.532,17.3680952 C26.613,17.3680952 26.667,17.4130952 26.694,17.4850952 L26.82,17.8360952 C26.946,17.6560952 27.279,17.2780952 27.837,17.2780952 C28.26,17.2780952 28.638,17.4130952 28.53,17.6380952 L28.197,18.2230952 C28.152,18.3040952 28.062,18.3400952 27.99,18.3040952 C27.963,18.2950952 27.828,18.2500952 27.729,18.2500952 C27.369,18.2500952 27.153,18.4930952 27.09,18.6190952 L27.09,20.7970952 C27.09,20.9230952 27.009,20.9680952 26.883,20.9680952 L26.19,20.9680952 C26.1,20.9680952 26.019,20.8870952 26.019,20.7970952 Z M29.619,16.0900952 C29.277,16.0900952 29.007,15.8110952 29.007,15.4690952 C29.007,15.1270952 29.277,14.8480952 29.619,14.8480952 C29.97,14.8480952 30.249,15.1270952 30.249,15.4690952 C30.249,15.8110952 29.97,16.0900952 29.619,16.0900952 Z M29.088,20.7970952 L29.088,17.5390952 C29.088,17.4400952 29.169,17.3680952 29.259,17.3680952 L30.006,17.3680952 C30.096,17.3680952 30.177,17.4400952 30.177,17.5390952 L30.177,20.7970952 C30.177,20.8870952 30.096,20.9680952 30.006,20.9680952 L29.259,20.9680952 C29.169,20.9680952 29.088,20.8870952 29.088,20.7970952 Z M30.987,19.1680952 C30.987,18.1510952 31.752,17.2780952 32.823,17.2780952 C33.75,17.2780952 34.506,17.9800952 34.506,18.9520952 C34.506,19.0150952 34.497,19.1320952 34.488,19.1950952 C34.479,19.2850952 34.398,19.3480952 34.317,19.3480952 L32.013,19.3480952 C32.04,19.7170952 32.355,20.1310952 32.877,20.1310952 C33.156,20.1310952 33.417,20.0230952 33.579,19.9060952 C33.669,19.8520952 33.75,19.8340952 33.813,19.9060952 L34.182,20.3290952 C34.245,20.3920952 34.263,20.4910952 34.173,20.5630952 C33.876,20.8420952 33.417,21.0580952 32.832,21.0580952 C31.752,21.0580952 30.987,20.2030952 30.987,19.1680952 Z M32.094,18.7180952 L33.453,18.7180952 C33.426,18.3850952 33.138,18.1060952 32.796,18.1060952 C32.436,18.1060952 32.139,18.3760952 32.094,18.7180952 Z M35.118,20.7250952 C35.064,20.6800952 35.028,20.6080952 35.064,20.5360952 L35.307,20.0500952 C35.343,19.9600952 35.433,19.9420952 35.514,19.9870952 C35.514,19.9870952 35.919,20.2030952 36.333,20.2030952 C36.513,20.2030952 36.639,20.1310952 36.639,19.9780952 C36.639,19.8160952 36.513,19.7170952 36.036,19.5280952 C35.343,19.2580952 35.019,18.8890952 35.019,18.3400952 C35.019,17.7910952 35.424,17.2780952 36.342,17.2780952 C36.873,17.2780952 37.26,17.4310952 37.449,17.5570952 C37.53,17.6110952 37.575,17.7100952 37.53,17.8000952 L37.305,18.2590952 C37.26,18.3400952 37.161,18.3490952 37.089,18.3220952 C37.089,18.3220952 36.684,18.1330952 36.342,18.1330952 C36.126,18.1330952 36.036,18.2230952 36.036,18.3400952 C36.036,18.5020952 36.198,18.5560952 36.531,18.6910952 C37.224,18.9610952 37.746,19.2580952 37.746,19.9600952 C37.746,20.5540952 37.224,21.0580952 36.315,21.0580952 C35.721,21.0580952 35.307,20.8690952 35.118,20.7250952 Z" id="Catégories"></path>
            </g>
        </g>
    </g>
</svg>